<svg xmlns="http://www.w3.org/2000/svg" width="359.444" height="693.333" viewBox="0 0 323.49998 624"><path d="M95 481.5V339H0V228h95l.004-41.75c.002-22.962.478-48.014 1.057-55.669 2.987-39.458 15.003-68.319 38.113-91.54C160.894 12.195 194.977 0 243.296 0c21.34 0 57.718 1.715 70.833 3.34L323.5 4.5v99l-39 .552c-35.613.504-39.586.73-45.746 2.615-15.72 4.806-23.821 14.985-27.326 34.333-.991 5.474-1.368 18.237-1.393 47.25L210 228h54.441c29.943 0 54.639.338 54.88.75.407.693-12.707 102.955-13.85 108l-.51 2.25H210v285H95z" fill="#3e3c4a"/></svg>