<svg xmlns="http://www.w3.org/2000/svg" width="863.806" height="549.291" viewBox="0 0 863.80627 549.29089"><path d="M252.806 548.673c-10.714-.812-33.5-4.723-45.5-7.811-54.104-13.922-105.108-44.983-139.401-84.896C21.939 402.47-2.24 334.616.163 265.863c1.484-42.448 10.432-77.42 29.572-115.57C56.378 97.188 95.714 57.566 148.577 30.587c30.298-15.463 59.636-24.599 94.23-29.342 12.128-1.663 51.244-1.657 64.5.01 40.493 5.09 76.194 17.302 107.884 36.9 10.67 6.598 29.766 20.856 37.615 28.085l5.5 5.065-15.02 14.78c-8.26 8.128-24.91 24.273-37 35.876l-21.98 21.097-7.223-6.196c-22.355-19.176-47.758-30.344-78.277-34.413-36.5-4.866-69.274.663-101 17.04-49.654 25.63-84.037 74.412-91.54 129.875-2.775 20.51-1.472 48.222 3.125 66.5 6.772 26.919 18.763 50.75 36.01 71.564 34.068 41.115 88.5 64.135 141.718 59.935 19.403-1.532 30.588-3.653 45.647-8.658 24.266-8.065 40.385-17.76 57.1-34.341 20.957-20.788 34.284-44.64 40.372-72.25l.606-2.75H274.806v-94h259.74l1.88 13.25c3.961 27.92 1.761 71.11-5.223 102.534-21.924 98.65-92.95 169.748-190.897 191.092-26.162 5.701-62.193 8.35-87.5 6.434zm454-195.287v-39l-39.25-.261-39.25-.262-.261-39.25-.262-39.25h79.023V156.34l39.25.261 39.25.262.262 39.25.261 39.25h77.977v79H785.83l-.262 38.75-.262 38.75-39.25.262-39.25.261z" fill="#3e3c4a"/></svg>