<svg xmlns="http://www.w3.org/2000/svg" width="599.006" height="479.967" viewBox="0 0 599.00647 479.96677"><path d="M37.634 478.445c-16.606-4.02-31.233-17.958-36.04-34.345C.158 439.21 0 418.83 0 239.956 0 43.609.024 41.166 2.012 34.887c2.596-8.198 5.602-12.969 12.7-20.154 6.506-6.586 16.69-12.13 25.174-13.703 7.41-1.373 511.818-1.373 519.228 0 8.484 1.574 18.668 7.117 25.174 13.703 7.098 7.185 10.104 11.956 12.7 20.154 1.988 6.28 2.012 8.722 2.012 205.069 0 218.916.447 203.173-6.092 214.694-3.906 6.883-12.777 15.5-19.825 19.257-12.247 6.528 7.103 6.102-274.083 6.027-217.11-.059-256.381-.282-261.366-1.489zM554.69 438.08c2.142-1.306 3.535-3.192 4.244-5.746 1.478-5.323 1.478-379.282 0-384.604-.71-2.555-2.102-4.44-4.244-5.747-3.136-1.912-7.358-1.944-255.189-1.944s-252.053.032-255.189 1.944c-2.142 1.307-3.535 3.192-4.244 5.747-1.478 5.322-1.478 379.281 0 384.604.71 2.554 2.102 4.44 4.244 5.746 3.136 1.912 7.358 1.944 255.189 1.944s252.053-.032 255.189-1.944zM80 369.778v-30.254l49.756-49.748 49.755-49.748 24.99 25.004 24.99 25.005 80.007-80.003 80.007-80.003 64.748 64.753L519 259.537v140.495H80zm44.202-171.768c-18.564-4.864-33.913-18.617-40.848-36.6-2.145-5.564-2.74-9.081-3.118-18.404-.79-19.5 3.884-32.037 16.764-44.973 8.64-8.677 16.334-13.146 27.596-16.026 29.53-7.552 59.814 8.054 71.116 36.647 2.492 6.305 2.721 8.043 2.753 20.878.04 16.325-1.563 22.239-9.143 33.721-14.058 21.294-40.283 31.263-65.12 24.757z" fill="#fff"/></svg>