<svg xmlns="http://www.w3.org/2000/svg" width="589.141" height="479.407" viewBox="0 0 589.14124 479.4072"><path d="M157.5 478.804c-41.337-2.697-86.37-14.925-124-33.67C24.115 440.46 0 427.03 0 426.477c0-.1 7.375-.003 16.39.215 59.281 1.43 106.316-12.262 151.843-44.206 4.804-3.37 8.741-6.398 8.75-6.728.01-.33-3.94-.881-8.775-1.225-36.125-2.564-72.338-25.614-92.224-58.702-4.333-7.21-11.62-23.732-10.79-24.465.169-.148 3.456.175 7.306.718 8.74 1.233 33.162.302 40.5-1.544 3.025-.761 4.825-1.626 4-1.922-.825-.296-5.527-1.795-10.448-3.332-19.175-5.986-35.395-16.282-50.67-32.165-19.675-20.46-30.92-45.577-32.69-73.013-.398-6.187-.59-11.25-.425-11.25.165 0 2.514 1.122 5.222 2.494 11.944 6.053 27.928 10.546 42.511 11.95l6 .578-3.951-3.261c-14.132-11.662-23.315-21.59-30.392-32.859-19.871-31.638-24.25-69.815-12.01-104.716 3.108-8.861 8.601-20.186 9.792-20.186.363 0 3.226 3.081 6.363 6.847C54.159 39.138 79.7 63.957 90 72.168c35.588 28.373 74.1 48.794 117 62.04 22.458 6.934 43.678 10.888 75.867 14.134l6.366.642-.628-3.813c-.345-2.097-.897-11.238-1.225-20.313-.862-23.774 2.276-39.383 11.657-58C320.552 24.16 364.77-1.914 412.239.11c30.383 1.295 55.413 11.472 76.383 31.056l7.653 7.147 14.392-3.709c17.364-4.475 33.656-10.718 50.02-19.168l12.189-6.293-2.313 6.143c-7.748 20.585-22.514 40.08-39.976 52.778-9.942 7.23-9.886 7.113-3.087 6.334 13.779-1.579 36.896-7.69 52.99-14.008l8.651-3.397-1.722 2.683c-8.977 13.98-32.1 38.728-47.876 51.242l-10.245 8.127-.607 21.657c-.334 11.91-1.274 27.113-2.088 33.783-9.535 78.102-43.892 149.418-99.582 206.711-28.124 28.933-54.773 48.242-89.021 64.5-34.694 16.469-67.99 26.203-106.637 31.176-18.025 2.319-53.65 3.25-73.863 1.932z" fill="#3e3c4a"/></svg>